<svg width="504" height="150" viewBox="0 0 504 150" fill="none" xmlns="http://www.w3.org/2000/svg">
<path d="M200.221 94.9439C199.652 94.9439 199.37 94.289 199.37 92.9863C199.37 91.9591 199.525 91.2756 199.842 90.932C200.039 90.6596 200.333 90.476 200.661 90.4202H200.977C203.415 90.4202 204.801 90.1745 205.136 89.683C205.268 89.4954 205.334 89.269 205.326 89.0388V67.7698H199.307C199.307 65.4173 199.449 64.006 199.733 63.536C200.014 63.0672 200.327 62.8202 200.661 62.8202H200.977C203.415 62.8202 204.801 62.5745 205.136 62.083C205.267 61.8965 205.334 61.6713 205.326 61.4424V57.3983C205.326 51.2379 207.201 47.1819 210.951 45.2302C212.264 44.529 213.723 44.1607 215.206 44.1566C216.334 44.133 217.462 44.2084 218.577 44.382C219.339 44.5156 220.067 44.7988 220.722 45.2159C222.191 46.1345 222.926 47.5565 222.926 49.4819C222.942 50.0706 222.838 50.6562 222.621 51.2023C222.405 51.7484 222.08 52.2433 221.668 52.6563C221.267 53.0619 220.789 53.3794 220.263 53.5893C219.736 53.7992 219.174 53.897 218.609 53.8767C216.656 53.8767 215.323 52.9999 214.608 51.2462C214.392 50.6843 214.285 50.0852 214.291 49.4819V48.4583H214.26C212.558 48.4583 211.645 50.2656 211.521 53.8803C211.479 54.9062 211.458 55.9333 211.458 56.9617V62.831H219.948C220.473 62.831 220.736 63.462 220.736 64.7242C220.736 65.9863 220.484 66.9061 219.98 67.4834C219.91 67.576 219.819 67.6502 219.715 67.7C219.611 67.7498 219.497 67.7737 219.382 67.7698H211.472V90.4202H218.591C219.161 90.4202 219.442 91.0716 219.442 92.3743C219.442 93.4014 219.287 94.0886 218.971 94.4285C218.775 94.7029 218.481 94.888 218.152 94.9439H200.221Z" fill="#555751"/>
<path d="M244.524 95.583C242.478 95.6275 240.45 95.1876 238.599 94.2982C236.91 93.4579 235.433 92.2334 234.282 90.7193C231.926 87.6177 230.754 83.5545 230.766 78.5298C230.766 73.2808 232.362 69.1747 235.555 66.2114C238.456 63.5368 242.112 62.2007 246.521 62.2031H246.615C250.734 62.2031 254.043 63.7957 256.544 66.9809C258.94 70.0205 260.137 73.9572 260.137 78.7911C260.137 84.1808 258.666 88.3728 255.725 91.3671C252.94 94.1753 249.207 95.5806 244.524 95.583ZM239.953 69.3751C239.062 70.3919 238.391 71.5881 237.984 72.886C237.426 74.6516 237.165 76.5003 237.211 78.3544C237.176 80.2231 237.377 82.0886 237.808 83.9052C238.154 85.2388 238.73 86.4991 239.51 87.6272C240.961 89.6385 242.968 90.643 245.533 90.6406C248.176 90.6406 250.224 89.4644 251.675 87.1119C252.999 84.9646 253.661 82.1635 253.661 78.7087C253.64 72.9158 251.97 69.2797 248.651 67.8004C247.688 67.3626 246.647 67.1335 245.592 67.1276C244.57 67.1233 243.554 67.2864 242.583 67.6108C241.575 67.9651 240.67 68.5719 239.953 69.3751V69.3751Z" fill="#555751"/>
<path d="M280.065 90.6396H283.658C286.576 90.6396 288.54 89.7318 289.55 87.9161C289.845 87.3539 289.997 86.7249 289.99 86.0874C290.006 85.4815 289.847 84.884 289.533 84.3695C289.159 83.8228 288.67 83.368 288.102 83.0382C287.113 82.4202 285.472 81.7522 283.18 81.034C281.4 80.5045 279.648 79.8833 277.931 79.173C276.812 78.6964 275.762 78.0654 274.812 77.2977C273.005 75.754 272.101 73.6366 272.101 70.9453C272.101 66.9871 274.276 64.3244 278.627 62.9573C280.197 62.4539 281.832 62.1945 283.478 62.1879C284.945 62.1805 286.409 62.287 287.859 62.5064C289.143 62.6915 290.395 63.0589 291.579 63.5979C294.077 64.7766 295.327 66.455 295.327 68.6333V68.7944C295.338 69.361 295.234 69.9239 295.023 70.4483C294.812 70.9728 294.498 71.4476 294.1 71.8436C293.692 72.2511 293.209 72.5716 292.679 72.7862C292.148 73.0007 291.58 73.1049 291.009 73.0926C289.038 73.0926 287.694 72.2158 286.977 70.4621C286.793 70.0477 286.686 69.6025 286.66 69.1487C286.73 68.3281 286.856 67.5136 287.04 66.7115H283.918C282.216 66.7115 280.956 67.0109 280.138 67.6098C278.645 68.6548 277.899 69.8096 277.899 71.0741C277.899 72.7442 279.37 74.0911 282.311 75.1146L284.709 75.9485C288.757 77.3275 291.359 78.4942 292.514 79.4486C293.574 80.2933 294.435 81.368 295.035 82.5944C295.577 83.812 295.846 85.1372 295.822 86.4739C295.855 87.7556 295.583 89.0264 295.028 90.1776C294.473 91.3287 293.653 92.326 292.637 93.084C290.474 94.7541 287.661 95.5892 284.199 95.5892C281.386 95.6328 278.589 95.1537 275.944 94.1755C274.137 93.4932 272.855 92.5102 272.098 91.2266C271.725 90.597 271.529 89.8752 271.532 89.1401C271.519 88.4947 271.625 87.8524 271.845 87.2469C272.076 86.724 272.396 86.2467 272.79 85.8368C273.634 85.0468 274.739 84.6109 275.885 84.6169C277.031 84.6229 278.133 85.0702 278.968 85.869C279.357 86.2125 279.671 86.6358 279.889 87.1113C280.106 87.5869 280.222 88.1038 280.23 88.6283V88.6605C280.245 89.3244 280.189 89.9879 280.065 90.6396Z" fill="#555751"/>
<path d="M318.064 95.5841C313.758 95.5841 311.605 92.622 311.605 86.6978V67.7693H305.628C305.628 65.4169 305.77 64.0056 306.054 63.5356C306.335 63.0667 306.644 62.8198 306.982 62.8198H307.298C309.877 62.8198 311.431 62.5741 311.96 62.0826C312.06 62.0071 312.143 61.9111 312.204 61.8006C312.264 61.6902 312.301 61.568 312.312 61.4419L313.666 54.3523C313.909 53.1903 315.271 52.6094 317.751 52.6094V62.8413H326.266C326.791 62.8413 327.054 63.4723 327.054 64.7345C327.054 65.9966 326.791 66.9128 326.266 67.483C326.2 67.5729 326.114 67.6457 326.015 67.6954C325.916 67.7451 325.807 67.7705 325.697 67.7693H317.751V86.6978C317.751 89.0837 318.443 90.2767 319.829 90.2767C321.404 90.2767 322.525 90.1514 323.186 89.9188C323.624 89.7321 324.086 89.6116 324.557 89.5609C324.81 89.5686 325.055 89.6521 325.261 89.8007C325.506 89.9643 325.715 90.1775 325.876 90.427C326.22 90.9371 326.408 91.5402 326.414 92.1591C326.414 92.7998 326.213 93.2328 325.813 93.4081C323.105 94.8612 320.523 95.5865 318.064 95.5841Z" fill="#555751"/>
<path d="M336.813 78.4498C336.769 76.0326 337.208 73.6314 338.103 71.3923C338.879 69.4802 340.038 67.754 341.507 66.3246C344.408 63.588 347.991 62.209 352.254 62.1875H352.349C356.257 62.1875 359.271 63.4377 361.392 65.9381C363.513 68.4385 364.575 72.0174 364.577 76.6747C364.57 77.1863 364.443 77.6889 364.207 78.1408C363.971 78.5926 363.633 78.9807 363.22 79.2729C362.261 80.0095 361.081 80.3885 359.88 80.3466H343.268C343.648 85.3569 345.36 88.5648 348.405 89.9701C349.364 90.4181 350.408 90.6477 351.463 90.6429C352.431 90.6604 353.397 90.54 354.332 90.285C355.165 90.0434 355.976 89.7322 356.758 89.3545C357.539 88.9802 358.296 88.5571 359.026 88.0876C360.559 87.1046 361.462 86.6131 361.737 86.6131C362.041 86.6582 362.325 86.7925 362.556 86.9996C362.829 87.2797 363.082 87.5799 363.312 87.8979C363.86 88.7103 364.141 89.3939 364.162 89.9486V90.013C364.162 90.5284 364.046 90.8684 363.811 91.0401C360.079 94.0363 355.453 95.6438 350.7 95.596C346.308 95.596 342.884 94.0344 340.427 90.9113C338.018 87.8669 336.813 83.7131 336.813 78.4498ZM358.115 75.533V75.4042C358.115 71.1716 356.907 68.5626 354.491 67.5772C353.685 67.2676 352.83 67.1146 351.97 67.1263C350.983 67.137 350.005 67.3111 349.073 67.6417C348.069 68.0014 347.134 68.5327 346.306 69.2128C344.431 70.7731 343.422 72.8799 343.279 75.533H358.115Z" fill="#555751"/>
<path d="M386.847 64.5639L386.815 65.8487C386.815 66.1028 386.815 66.3604 386.815 66.6181C386.815 66.8758 386.815 67.1084 386.815 67.3339C389.271 65.0458 391.741 63.4735 394.223 62.617C395.029 62.3608 395.867 62.2211 396.712 62.2018H396.775C397.536 62.1895 398.29 62.3535 398.979 62.6814C399.589 62.9756 400.136 63.3904 400.586 63.9018C401.243 64.6299 401.618 65.5761 401.641 66.5644C401.67 67.3181 401.55 68.0701 401.289 68.7761C401.064 69.3021 400.73 69.773 400.312 70.1576C399.428 70.9926 398.556 71.409 397.696 71.4066C397.005 71.4486 396.314 71.3261 395.678 71.0487C395.219 70.8054 394.804 70.4861 394.448 70.1039C393.73 69.3836 393.323 68.4027 393.316 67.3768C392.262 67.8309 391.316 68.5094 390.542 69.3667C389.976 70.0283 389.45 70.7238 388.967 71.4495L387.56 73.6326V90.4532H395.221C395.702 90.4532 395.943 91.1045 395.945 92.4072C395.945 93.4558 395.791 94.1465 395.488 94.4794C395.388 94.6146 395.263 94.7282 395.119 94.8136C394.975 94.899 394.816 94.9545 394.652 94.9768H376.31C375.723 94.9768 375.427 94.3004 375.427 92.9548C375.412 92.5362 375.479 92.1186 375.625 91.7269C375.771 91.3353 375.993 90.9776 376.278 90.6751C376.615 90.4873 377 90.4098 377.382 90.4532C377.948 90.4532 378.532 90.4246 379.14 90.3709C379.616 90.3406 380.087 90.2602 380.546 90.1311C381.137 89.9378 381.429 89.5871 381.429 89.0574V67.8993H375.884C375.066 67.8993 374.656 67.0643 374.654 65.3941C374.654 64.3253 374.922 63.6727 375.459 63.4365C376.138 63.1613 376.846 62.9679 377.568 62.8603C378.452 62.6885 379.356 62.5597 380.279 62.4738C382.044 62.3068 383.441 62.2114 384.47 62.1875H384.723C385.584 62.1875 386.098 62.2412 386.266 62.3486C386.367 62.3863 386.459 62.4459 386.534 62.5231C386.61 62.6004 386.669 62.6934 386.706 62.7959C386.844 63.2409 386.897 63.7084 386.864 64.1738L386.847 64.5639Z" fill="#555751"/>
<path d="M411.295 94.9439C410.729 94.9439 410.445 94.2889 410.445 92.9862C410.445 91.9579 410.603 91.2732 410.919 90.932C411.116 90.659 411.41 90.4753 411.738 90.4202H412.051C414.487 90.4202 415.873 90.1745 416.211 89.683C416.342 89.4954 416.409 89.2689 416.4 89.0388V67.7697H410.381C410.381 65.4172 410.523 64.006 410.807 63.5359C411.092 63.0671 411.401 62.8202 411.738 62.8202H412.051C414.487 62.8202 415.873 62.5744 416.211 62.0829C416.341 61.8965 416.408 61.6713 416.4 61.4423V57.3982C416.4 51.2379 418.281 47.1818 422.043 45.2302C423.356 44.5286 424.815 44.1602 426.297 44.1565C427.426 44.1331 428.554 44.2085 429.669 44.382C430.429 44.5162 431.156 44.7994 431.81 45.2159C433.284 46.1344 434.02 47.5564 434.018 49.4818C434.033 50.0708 433.928 50.6565 433.711 51.2027C433.494 51.7488 433.169 52.2436 432.756 52.6563C432.356 53.0616 431.878 53.379 431.353 53.5889C430.827 53.7988 430.265 53.8967 429.701 53.8767C427.746 53.8767 426.412 52.9998 425.7 51.2462C425.484 50.6843 425.376 50.0852 425.383 49.4818V48.4583H425.352C423.65 48.4583 422.736 50.2656 422.609 53.8802C422.567 54.9062 422.546 55.9333 422.546 56.9616V62.8309H431.037C431.564 62.8309 431.824 63.4608 431.824 64.7241C431.824 65.9875 431.575 66.8714 431.068 67.4834C430.999 67.5773 430.909 67.6525 430.805 67.7025C430.7 67.7524 430.586 67.7755 430.471 67.7697H422.56V90.4202H429.683C430.25 90.4202 430.534 91.0716 430.534 92.3743C430.534 93.4014 430.376 94.0885 430.063 94.4285C429.865 94.7031 429.57 94.8881 429.24 94.9439H411.295Z" fill="#FFC100"/>
<path d="M466.061 91.8629C462.721 94.3442 459.707 95.5849 457.018 95.5849C451.724 95.5849 448.319 93.4245 446.805 89.1036C446.273 87.49 446.017 85.7951 446.049 84.0933V67.7702H441.605C440.827 67.7702 440.439 66.9578 440.441 65.333C440.441 64.2593 440.649 63.676 441.071 63.5686C444.227 62.7013 447.477 62.2384 450.746 62.1908C451.672 62.1908 452.155 63.0461 452.195 64.7568V81.7563C452.195 85.9292 453.249 88.4213 455.359 89.2325C456.115 89.5121 456.917 89.6432 457.721 89.619C458.618 89.6223 459.512 89.5141 460.383 89.2969C461.165 89.1069 461.929 88.8495 462.668 88.5274C463.26 88.2298 463.829 87.8864 464.37 87.5003L465.727 86.4732V67.7702H461.41C460.545 67.7702 460.116 66.9792 460.116 65.3974C460.116 64.3905 460.395 63.7762 460.952 63.5543C461.612 63.2987 462.292 63.1 462.985 62.9602C463.782 62.8099 464.611 62.6703 465.474 62.5415C467.114 62.3315 468.427 62.2122 469.411 62.1836H469.506C470.41 62.1836 470.965 62.3017 471.176 62.5415C471.44 62.7744 471.618 63.0909 471.683 63.4398C471.838 64.3722 471.901 65.3182 471.869 66.2635V90.4206H477.164C477.733 90.4206 478.015 91.1149 478.015 92.5035C478.015 94.0019 477.584 94.8155 476.724 94.9443C474.827 95.2636 472.909 95.4346 470.987 95.4561C469.306 95.4561 468.322 95.3702 468.026 95.1984C467.725 95.0205 467.466 94.7759 467.27 94.4826C466.764 93.6628 466.358 92.783 466.061 91.8629Z" fill="#FFC100"/>
<path d="M486.636 94.9436C486.087 94.9436 485.816 94.2887 485.816 92.986C485.816 91.9588 485.971 91.2753 486.288 90.9317C486.485 90.6593 486.779 90.4757 487.107 90.4199H487.423C489.858 90.4199 491.234 90.1742 491.551 89.6827C491.682 89.4951 491.749 89.2687 491.741 89.0385V49.7464H486.193C485.606 49.7249 485.205 49.1774 484.994 48.1109C484.955 47.8102 484.923 47.4989 484.902 47.1804C484.902 46.1962 485.184 45.5914 485.753 45.3659C486.477 45.1003 487.227 44.912 487.989 44.804C488.927 44.6561 489.904 44.5368 490.921 44.4461C492.853 44.2744 494.701 44.1777 496.466 44.1562C497.347 44.1562 497.816 45.0653 497.872 46.8833C497.872 47.4166 497.872 47.9749 497.904 48.5511V90.4235H503.177C503.726 90.4235 504 91.0749 504 92.3776C504 93.4047 503.842 94.0918 503.526 94.4318C503.329 94.7062 503.035 94.8912 502.706 94.9472L486.636 94.9436Z" fill="#FFC100"/>
<path d="M70.467 83.5032C65.1933 74.8138 59.7579 65.8237 59.7579 47.9832C59.7579 39.3689 61.0271 32.8232 62.9221 27.3762C62.9681 27.2457 62.9785 27.105 62.9521 26.969C62.9257 26.833 62.8635 26.7068 62.7722 26.604C62.6809 26.5011 62.5639 26.4254 62.4337 26.3849C62.3034 26.3445 62.1648 26.3407 62.0326 26.3741C50.3494 29.2701 40.1141 36.4244 33.2628 46.4834C26.4116 56.5425 23.4197 68.8088 24.8531 80.9617C26.2865 93.1147 32.0458 104.311 41.0415 112.434C50.0372 120.556 61.6453 125.041 73.6699 125.039C75.1794 125.039 76.6701 124.97 78.142 124.832C78.4854 124.801 78.8083 124.653 79.058 124.411C79.3077 124.169 79.4694 123.848 79.5167 123.5C79.8785 120.68 80.0547 117.838 80.0441 114.993C80.0546 99.3288 75.3962 91.6415 70.467 83.5032Z" fill="#FFC100"/>
<path d="M122.839 75.0003C122.839 61.729 117.66 49.0013 108.441 39.6171C99.2217 30.2329 86.7182 24.9609 73.6808 24.9609H73.069C72.7865 24.9644 72.5106 25.0484 72.2726 25.2034C72.0346 25.3583 71.844 25.5781 71.7225 25.8378C69.1384 31.4673 67.3066 38.1561 67.3066 47.9836C67.3066 63.6446 71.9616 71.332 76.8907 79.4774C82.1644 88.1704 87.6033 97.1569 87.6033 115.001C87.6033 117.506 87.4943 119.829 87.2939 122.005C87.282 122.13 87.3007 122.256 87.3482 122.372C87.3957 122.488 87.4707 122.59 87.5664 122.669C87.6621 122.749 87.7755 122.803 87.8967 122.827C88.0178 122.851 88.1429 122.844 88.2608 122.806C98.2805 119.635 107.041 113.285 113.262 104.684C119.484 96.0826 122.839 85.6814 122.839 75.0003Z" fill="#555751"/>
<path d="M13.7748 47.8874C17.4563 47.8874 20.4408 44.8494 20.4408 41.1019C20.4408 37.3544 17.4563 34.3164 13.7748 34.3164C10.0933 34.3164 7.10889 37.3544 7.10889 41.1019C7.10889 44.8494 10.0933 47.8874 13.7748 47.8874Z" fill="#C1BFB6"/>
<path d="M133.938 118.508C137.619 118.508 140.604 115.47 140.604 111.723C140.604 107.975 137.619 104.938 133.938 104.938C130.256 104.938 127.272 107.975 127.272 111.723C127.272 115.47 130.256 118.508 133.938 118.508Z" fill="#C1BFB6"/>
<path d="M6.66595 100.54C10.3475 100.54 13.3319 97.5017 13.3319 93.7542C13.3319 90.0067 10.3475 86.9688 6.66595 86.9688C2.98445 86.9688 0 90.0067 0 93.7542C0 97.5017 2.98445 100.54 6.66595 100.54Z" fill="#C1BFB6"/>
<path d="M140.692 63.985C144.373 63.985 147.358 60.9471 147.358 57.1995C147.358 53.452 144.373 50.4141 140.692 50.4141C137.01 50.4141 134.026 53.452 134.026 57.1995C134.026 60.9471 137.01 63.985 140.692 63.985Z" fill="#C1BFB6"/>
<path d="M38.2411 142.95C41.9226 142.95 44.9071 139.912 44.9071 136.164C44.9071 132.417 41.9226 129.379 38.2411 129.379C34.5596 129.379 31.5752 132.417 31.5752 136.164C31.5752 139.912 34.5596 142.95 38.2411 142.95Z" fill="#C1BFB6"/>
<path d="M107.619 20.6335C111.3 20.6335 114.285 17.5955 114.285 13.848C114.285 10.1005 111.3 7.0625 107.619 7.0625C103.937 7.0625 100.953 10.1005 100.953 13.848C100.953 17.5955 103.937 20.6335 107.619 20.6335Z" fill="#C1BFB6"/>
<path d="M90.0151 150.001C93.6966 150.001 96.681 146.963 96.681 143.215C96.681 139.468 93.6966 136.43 90.0151 136.43C86.3336 136.43 83.3491 139.468 83.3491 143.215C83.3491 146.963 86.3336 150.001 90.0151 150.001Z" fill="#C1BFB6"/>
<path d="M54.101 13.571C57.7825 13.571 60.767 10.533 60.767 6.78548C60.767 3.03796 57.7825 0 54.101 0C50.4195 0 47.4351 3.03796 47.4351 6.78548C47.4351 10.533 50.4195 13.571 54.101 13.571Z" fill="#C1BFB6"/>
</svg>
